<svg width="40" height="40" viewBox="0 0 40 40" fill="none" xmlns="http://www.w3.org/2000/svg">
<g clip-path="url(#clip0_193_2203)">
<path d="M10.2816 5.0312C9.44418 4.1937 9.44418 2.83854 10.2816 2.00104C10.7393 1.54338 10.7393 0.801509 10.2816 0.343852C9.82402 -0.113804 9.08207 -0.113804 8.62441 0.343852C6.8752 2.09307 6.8752 4.93916 8.62441 6.68838C9.46184 7.5258 9.46184 8.88104 8.62441 9.71854C8.16676 10.1762 8.16676 10.9181 8.62441 11.3757C9.08199 11.8334 9.82402 11.8334 10.2816 11.3757C12.0308 9.62651 12.0308 6.78041 10.2816 5.0312Z" fill="black"/>
<path d="M17.3129 5.0312C16.4754 4.1937 16.4754 2.83854 17.3129 2.00104C17.7705 1.54338 17.7705 0.801509 17.3129 0.343852C16.8553 -0.113804 16.1133 -0.113804 15.6557 0.343852C13.9064 2.09307 13.9064 4.93916 15.6557 6.68838C16.4931 7.5258 16.4931 8.88104 15.6557 9.71854C15.198 10.1762 15.198 10.9181 15.6557 11.3757C16.1132 11.8334 16.8554 11.8334 17.3129 11.3757C19.0621 9.62651 19.0621 6.78041 17.3129 5.0312Z" fill="black"/>
<path d="M24.3441 5.0312C23.5067 4.1937 23.5067 2.83854 24.3441 2.00104C24.8018 1.54338 24.8018 0.801509 24.3441 0.343852C23.8865 -0.113804 23.1445 -0.113804 22.6869 0.343852C20.9377 2.09307 20.9377 4.93916 22.6869 6.68838C23.5243 7.5258 23.5243 8.88104 22.6869 9.71854C22.2293 10.1762 22.2293 10.9181 22.6869 11.3757C23.1445 11.8334 23.8866 11.8334 24.3441 11.3757C26.0934 9.62651 26.0934 6.78041 24.3441 5.0312Z" fill="black"/>
<path d="M29.4534 30.5465C35.2688 30.5465 40 25.8152 40 19.9999C40 18.0615 38.4229 16.4844 36.4844 16.4844H32.9463C32.9612 16.0948 32.9689 15.7041 32.9689 15.3125C32.9689 14.6653 32.4442 14.1406 31.797 14.1406H1.1731C0.525908 14.1406 0.00122055 14.6653 0.00122055 15.3125C0.00122055 21.7181 2.05692 28.4379 6.34114 32.9682H1.1731C0.304111 32.9682 -0.264483 33.8852 0.124892 34.6641C0.926924 36.2679 2.15778 37.6143 3.68474 38.5576C5.21122 39.5007 6.96607 39.9991 8.75942 39.9991H24.2108C27.8654 39.9991 31.2092 37.936 32.8453 34.664C33.2339 33.8867 32.6681 32.9681 31.7971 32.9681H26.6289C27.3233 32.2339 27.9736 31.4243 28.5733 30.5463H29.4534V30.5465ZM32.7653 18.828H36.4845C37.1307 18.828 37.6564 19.3537 37.6564 19.9999C37.6564 24.3465 34.2579 27.9137 29.9788 28.1855C31.4437 25.3508 32.3784 22.1502 32.7653 18.828ZM29.5813 35.2963C28.2211 36.7746 26.2947 37.6556 24.2107 37.6556H8.75942C6.67544 37.6556 4.74911 36.7746 3.38888 35.2963C4.42146 35.2963 29.0226 35.2963 29.5813 35.2963ZM23.1376 32.9683H9.83255C5.517 29.7034 2.66286 23.3516 2.36981 16.4688L30.6003 16.4845C30.3414 22.566 27.9169 29.3525 23.1376 32.9683Z" fill="black"/>
</g>
<defs>
<clipPath id="clip0_193_2203">
<rect width="40" height="40" fill="white"/>
</clipPath>
</defs>
</svg>
