<svg width="40" height="40" viewBox="0 0 40 40" fill="none" xmlns="http://www.w3.org/2000/svg">
<g clip-path="url(#clip0_193_2231)">
<path d="M29.375 0H10.625C8.68648 0 7.10938 1.57711 7.10938 3.51562V36.4844C7.10938 38.4229 8.68648 40 10.625 40H29.375C31.3135 40 32.8906 38.4229 32.8906 36.4844V3.51562C32.8906 1.57711 31.3135 0 29.375 0ZM30.5469 36.4844C30.5469 37.1305 30.0212 37.6562 29.375 37.6562H10.625C9.97883 37.6562 9.45312 37.1305 9.45312 36.4844V3.51562C9.45312 2.86945 9.97883 2.34375 10.625 2.34375H29.375C30.0212 2.34375 30.5469 2.86945 30.5469 3.51562V36.4844Z" fill="black"/>
<path d="M20 4.6875C16.7691 4.6875 14.1406 7.31602 14.1406 10.5469C14.1406 13.7777 16.7691 16.4062 20 16.4062C23.2309 16.4062 25.8594 13.7777 25.8594 10.5469C25.8594 7.31602 23.2309 4.6875 20 4.6875ZM20 14.0625C18.0615 14.0625 16.4844 12.4854 16.4844 10.5469C16.4844 8.60836 18.0615 7.03125 20 7.03125C21.9385 7.03125 23.5156 8.60836 23.5156 10.5469C23.5156 12.4854 21.9385 14.0625 20 14.0625Z" fill="black"/>
<path d="M20 18.9062C15.4768 18.9062 11.7969 22.5862 11.7969 27.1094C11.7969 31.6326 15.4768 35.3125 20 35.3125C24.5232 35.3125 28.2031 31.6326 28.2031 27.1094C28.2031 22.5862 24.5232 18.9062 20 18.9062ZM20 32.9688C16.7691 32.9688 14.1406 30.3402 14.1406 27.1094C14.1406 23.8785 16.7691 21.25 20 21.25C23.2309 21.25 25.8594 23.8785 25.8594 27.1094C25.8594 30.3402 23.2309 32.9688 20 32.9688Z" fill="black"/>
<path d="M20 23.5938C18.0615 23.5938 16.4844 25.1709 16.4844 27.1094C16.4844 29.0479 18.0615 30.625 20 30.625C21.9385 30.625 23.5156 29.0479 23.5156 27.1094C23.5156 25.1709 21.9385 23.5938 20 23.5938ZM20 28.2812C19.3538 28.2812 18.8281 27.7555 18.8281 27.1094C18.8281 26.4632 19.3538 25.9375 20 25.9375C20.6462 25.9375 21.1719 26.4632 21.1719 27.1094C21.1719 27.7555 20.6462 28.2812 20 28.2812Z" fill="black"/>
<path d="M20 11.7188C20.6472 11.7188 21.1719 11.1941 21.1719 10.5469C21.1719 9.89967 20.6472 9.375 20 9.375C19.3528 9.375 18.8281 9.89967 18.8281 10.5469C18.8281 11.1941 19.3528 11.7188 20 11.7188Z" fill="black"/>
<path d="M38.75 18.9062H36.4062C35.7591 18.9062 35.2344 19.4309 35.2344 20.0781C35.2344 20.7253 35.7591 21.25 36.4062 21.25H38.75C39.3972 21.25 39.9219 20.7253 39.9219 20.0781C39.9219 19.4309 39.3972 18.9062 38.75 18.9062Z" fill="black"/>
<path d="M39.5786 12.2182C39.1211 11.7606 38.379 11.7606 37.9214 12.2182L35.5776 14.5619C35.12 15.0196 35.12 15.7615 35.5776 16.2192C35.8064 16.448 36.1064 16.5625 36.4063 16.5625C36.7062 16.5625 37.0061 16.448 37.2349 16.2193L39.5786 13.8755C40.0364 13.4179 40.0364 12.6758 39.5786 12.2182Z" fill="black"/>
<path d="M39.5786 26.2807L37.2349 23.9369C36.7773 23.4794 36.0353 23.4794 35.5776 23.9369C35.12 24.3945 35.12 25.1365 35.5777 25.5942L37.9214 27.9379C38.1502 28.1667 38.4501 28.2812 38.75 28.2812C39.05 28.2812 39.3499 28.1667 39.5786 27.9379C40.0363 27.4803 40.0363 26.7383 39.5786 26.2807Z" fill="black"/>
<path d="M3.59375 18.9062H1.25C0.602812 18.9062 0.078125 19.4309 0.078125 20.0781C0.078125 20.7253 0.602812 21.25 1.25 21.25H3.59375C4.24094 21.25 4.76562 20.7253 4.76562 20.0781C4.76562 19.4309 4.24094 18.9062 3.59375 18.9062Z" fill="black"/>
<path d="M4.42238 14.5619L2.07863 12.2182C1.62105 11.7606 0.879023 11.7606 0.421367 12.2182C-0.0362891 12.6758 -0.0362891 13.4178 0.421367 13.8754L2.7652 16.2192C2.99395 16.4479 3.29387 16.5624 3.59379 16.5624C3.89371 16.5624 4.19363 16.4479 4.42238 16.2192C4.88004 15.7615 4.88004 15.0196 4.42238 14.5619Z" fill="black"/>
<path d="M4.42238 23.9369C3.9648 23.4794 3.22277 23.4794 2.76512 23.9369L0.421367 26.2807C-0.0362891 26.7383 -0.0362891 27.4803 0.421367 27.9379C0.650195 28.1667 0.950117 28.2812 1.25004 28.2812C1.54996 28.2812 1.84988 28.1667 2.07863 27.9379L4.42238 25.5942C4.88004 25.1365 4.88004 24.3946 4.42238 23.9369Z" fill="black"/>
</g>
<defs>
<clipPath id="clip0_193_2231">
<rect width="40" height="40" fill="white"/>
</clipPath>
</defs>
</svg>
