<svg width="40" height="40" viewBox="0 0 40 40" fill="none" xmlns="http://www.w3.org/2000/svg">
<path d="M30.0039 0H10.0039C7.93599 0 6.25391 1.68208 6.25391 3.75V35C6.25391 36.3787 7.37516 37.5 8.75391 37.5V38.75C8.75391 39.4404 9.31349 40 10.0039 40C10.6943 40 11.2539 39.4404 11.2539 38.75V37.5H28.7539V38.75C28.7539 39.4404 29.3135 40 30.0039 40C30.6943 40 31.2539 39.4404 31.2539 38.75V37.5C32.6327 37.5 33.7539 36.3787 33.7539 35V3.75C33.7539 1.68208 32.0718 0 30.0039 0ZM10.0039 2.5H30.0039C30.6931 2.5 31.2539 3.06083 31.2539 3.75L31.2543 10H8.75391V3.75C8.75391 3.06083 9.31474 2.5 10.0039 2.5ZM18.7539 22.5V20H21.2539V22.5H18.7539ZM18.7539 25V26.25C18.7539 26.9404 19.3135 27.5 20.0039 27.5C20.6943 27.5 21.2539 26.9404 21.2539 26.25V25C22.6327 25 23.7539 23.8787 23.7539 22.5V20H25.0039C25.6931 20 26.2539 20.5608 26.2539 21.25V35H13.7539V21.25C13.7539 20.5608 14.3147 20 15.0039 20H16.2539V22.5C16.2539 23.8787 17.3752 25 18.7539 25ZM28.7539 35V21.25C28.7539 19.1821 27.0718 17.5 25.0039 17.5H15.0039C12.936 17.5 11.2539 19.1821 11.2539 21.25V35H8.75391V12.5H31.2543L31.2556 35H28.7539ZM16.2539 6.25C16.2539 5.55958 16.8135 5 17.5039 5H22.5039C23.1943 5 23.7539 5.55958 23.7539 6.25C23.7539 6.94042 23.1943 7.5 22.5039 7.5H17.5039C16.8135 7.5 16.2539 6.94042 16.2539 6.25Z" fill="black"/>
</svg>
