<svg width="40" height="40" viewBox="0 0 40 40" fill="none" xmlns="http://www.w3.org/2000/svg">
<g clip-path="url(#clip0_193_2192)">
<path d="M37.4668 15.9685H31.7367C29.9741 14.6005 27.7932 13.8433 25.5502 13.8433C23.3129 13.8433 21.1346 14.6004 19.3716 15.9685H2.52524C1.13282 15.9685 0 17.1013 0 18.4933V29.3601C0 30.7396 1.10616 31.8606 2.47478 31.8883V34.1896C2.47478 34.9269 3.07456 35.5267 3.81268 35.5267H7.58792C8.32523 35.5267 8.925 34.9269 8.925 34.1896V31.8935H19.3719C21.1343 33.2611 23.3127 34.0183 25.5502 34.0183C27.519 34.0183 29.4409 33.4333 31.0751 32.3662V34.1896C31.0751 34.9269 31.6749 35.5267 32.4122 35.5267H36.1883C36.9256 35.5267 37.5254 34.9269 37.5254 34.1896V31.8876C38.8951 31.8556 40.0001 30.7369 40.0001 29.3601V18.4933C40.0001 17.1013 38.8641 15.9685 37.4668 15.9685ZM7.25833 33.86H4.14145V31.8935H7.25833V33.86ZM2.52524 30.2268C2.0516 30.2268 1.66667 29.8378 1.66667 29.3601V18.4933C1.66667 18.0201 2.0516 17.6352 2.52524 17.6352H17.6669C16.3106 19.3272 15.4582 21.5892 15.4582 23.9267C15.4582 26.1298 16.2249 28.4242 17.6677 30.2268C12.0323 30.2268 8.12346 30.2268 2.52524 30.2268ZM17.1249 23.9267C17.1249 19.3389 20.8495 15.5099 25.5502 15.5099C30.2033 15.5099 33.9755 19.2721 33.9755 23.9267C33.9755 28.6197 30.1773 32.3516 25.5502 32.3516C20.8222 32.3516 17.1249 28.5034 17.1249 23.9267ZM35.8587 33.86H32.7418V31.8935H35.8587V33.86ZM38.3335 29.3601C38.3335 29.8378 37.9445 30.2268 37.4668 30.2268C37.3639 30.2268 33.2241 30.2268 33.4392 30.2268C34.7864 28.5419 35.6422 26.2678 35.6422 23.9267C35.6422 21.596 34.7909 19.3203 33.4401 17.6352H37.4668C37.9445 17.6352 38.3335 18.0201 38.3335 18.4933V29.3601Z" fill="black"/>
<path d="M32.3095 23.9266C32.3095 20.2468 29.3427 17.1765 25.5508 17.1765C21.7814 17.1765 18.793 20.2438 18.793 23.9266C18.793 27.6025 21.7642 30.6849 25.5508 30.6849C29.341 30.6849 32.3095 27.6177 32.3095 23.9266ZM25.5508 29.0182C22.6997 29.0182 20.4596 26.6975 20.4596 23.9266C20.4596 21.155 22.7124 18.8432 25.5508 18.8432C28.413 18.8432 30.6428 21.1584 30.6428 23.9266C30.6428 26.7002 28.4169 29.0182 25.5508 29.0182Z" fill="black"/>
<path d="M26.568 21.405C26.2742 21.759 26.323 22.2847 26.677 22.5785C27.0799 22.9121 27.311 23.4037 27.311 23.9265C27.311 24.4543 27.0782 24.9503 26.6721 25.2864C26.3181 25.5802 26.2693 26.1055 26.5631 26.4599C26.853 26.8108 27.3766 26.8661 27.7366 26.5698C28.5252 25.9155 28.9776 24.9523 28.9776 23.9265C28.9776 22.906 28.5268 21.947 27.7415 21.2951C27.3858 21.0009 26.8609 21.051 26.568 21.405Z" fill="black"/>
<path d="M4.59115 21.0588C4.13054 21.0588 3.75781 21.432 3.75781 21.8922V25.9645C3.75781 26.4247 4.13054 26.7978 4.59115 26.7978C5.05176 26.7978 5.42449 26.4247 5.42449 25.9645V21.8922C5.42449 21.432 5.05176 21.0588 4.59115 21.0588Z" fill="black"/>
<path d="M8.60287 21.0588C8.14225 21.0588 7.76953 21.432 7.76953 21.8922V25.9645C7.76953 26.4247 8.14225 26.7978 8.60287 26.7978C9.06348 26.7978 9.4362 26.4247 9.4362 25.9645V21.8922C9.4362 21.432 9.06348 21.0588 8.60287 21.0588Z" fill="black"/>
<path d="M12.6107 21.0591C12.1501 21.0591 11.7773 21.4322 11.7773 21.8924V25.9643C11.7773 26.4245 12.1501 26.7976 12.6107 26.7976C13.0713 26.7976 13.444 26.4245 13.444 25.9643V21.8924C13.444 21.4322 13.0713 21.0591 12.6107 21.0591Z" fill="black"/>
<path d="M24.7344 5.30673V10.0252C24.7344 10.4854 25.1071 10.8585 25.5677 10.8585C26.0283 10.8585 26.401 10.4854 26.401 10.0252V5.30673C26.401 4.84652 26.0283 4.47339 25.5677 4.47339C25.1071 4.47339 24.7344 4.84652 24.7344 5.30673Z" fill="black"/>
<path d="M29.953 6.23079L28.2953 10.6489C28.1341 11.0798 28.3522 11.56 28.7827 11.7215C29.222 11.8858 29.6972 11.6582 29.8561 11.2341L31.5139 6.81592C31.675 6.38501 31.4569 5.90486 31.0264 5.74332C30.5943 5.58178 30.1141 5.79907 29.953 6.23079Z" fill="black"/>
<path d="M20.0757 5.74335C19.6452 5.90489 19.4271 6.38504 19.5882 6.81595L21.2459 11.2341C21.4047 11.6579 21.8797 11.886 22.3194 11.7216C22.7499 11.56 22.968 11.0799 22.8068 10.649L21.1491 6.23082C20.9872 5.7995 20.507 5.58222 20.0757 5.74335Z" fill="black"/>
</g>
<defs>
<clipPath id="clip0_193_2192">
<rect width="40" height="40" fill="white"/>
</clipPath>
</defs>
</svg>
